<?xml version="1.0" encoding="UTF-8"?>
<svg id="Layer_1" data-name="Layer 1" xmlns="http://www.w3.org/2000/svg" viewBox="0 0 1983 2000">
  <defs>
    <style>
      .cls-1 {
        fill: #0287c9;
      }

      .cls-2 {
        fill: #064c77;
      }
    </style>
  </defs>
  <polygon class="cls-1" points="988 472 1055 510 781 668 851 709 1125 551 1332 668 988 867 920 828 1193.05 669.5 1125 629 850 787 643.14 669.5 988 472"/>
  <path class="cls-2" d="m575,711v417.79c119.98,68.21,239.96,136.42,359.93,204.64,5.02,2.86,15.07-7.35,15.07-15.31v-330.79c-8.51-24.78-17.02-49.56-25.53-74.34l-45.47-27,6.28,309.69c.07.45,1.57,10.83-6.28,17.31-5.93,4.89-14.64,5.43-21.57,1.22l-214.29-125.88c-.05-111.11-.09-222.23-.14-333.34-22.67-14.67-45.33-29.33-68-44Z"/>
  <path class="cls-2" d="m575,711l354.23,205.13c3.91,3.08,9.44,8.2,13.77,15.87,7.34,12.98,7.08,25.86,7,31-.33,22.05.19,83.16,0,166-38.06-52.43-61.61-93.78-65-105-4.14-13.74-4-22-4-22,0-1.38.41-4.6,0-9-.12-1.28-.51-4.99-2-10-1.29-4.36-3.13-10.56-8-17-2.16-2.85-6.02-7.23-12.25-11.05l-283.75-156.86v-87.1Z"/>
  <path class="cls-2" d="m1025,1345.53l87-50.53c-.67-139.33-1.33-278.67-2-418-28.33,16.91-56.67,33.83-85,50.74v417.79Z"/>
  <path class="cls-2" d="m1108,1092.99c-7.33-36-14.67-71.99-22-107.99,46.67-58,93.33-116,140-174,50.67-29.33,101.33-58.67,152-88-90,123.33-180,246.66-270,369.99Z"/>
  <path class="cls-2" d="m1062.12,1036.86c9.29,37.38,18.58,74.76,27.88,112.14,69.33,16,138.67,32,208,48l105-63c-113.63-32.38-227.25-64.76-340.88-97.14Z"/>
  <path class="cls-2" d="m1415,705.5c-.13,59.68-.26,119.37-.39,179.05-.13,59.45-.26,118.9-.39,178.35-.07,33.67-.15,67.35-.22,101.02l.74-1.3c-52.83,30.97-105.65,61.93-158.48,92.9-53.03,31.08-106.05,62.16-159.08,93.25-29.81,17.48-59.63,34.95-89.44,52.43-1.66.98-.16,3.57,1.51,2.59,52.43-30.73,104.85-61.46,157.28-92.19,52.63-30.85,105.25-61.7,157.88-92.54,26.21-15.37,52.43-30.73,78.64-46.1,3.2-1.88,6.4-3.75,9.6-5.63s4.34-1.84,4.35-5.5c.02-7.66.03-15.33.05-22.99.03-15.1.07-30.19.1-45.29.13-60.84.27-121.69.4-182.53.13-61.08.27-122.15.4-183.23.02-7.43.03-14.86.05-22.29,0-1.93-3-1.93-3,0h0Z"/>
  <path class="cls-2" d="m534,704.5c-.13,59.27-.26,118.53-.39,177.8-.13,59.27-.26,118.53-.39,177.8-.07,33.47-.15,66.94-.22,100.4,0,.52.29,1.04.74,1.3,55.88,31.45,111.75,62.89,167.63,94.34,55.88,31.45,111.75,62.89,167.63,94.34,31.58,17.77,63.16,35.55,94.75,53.32,1.68.95,3.2-1.64,1.51-2.59-55.88-31.45-111.75-62.89-167.63-94.34-55.88-31.45-111.75-62.89-167.63-94.34-31.58-17.77-63.16-35.55-94.75-53.32l.74,1.3c.13-59.27.26-118.53.39-177.8.13-59.27.26-118.53.39-177.8.07-33.47.15-66.94.22-100.4,0-1.93-3-1.93-3,0h0Z"/>
  <path class="cls-2" d="m1405.26,658.2c-55.57-31.79-111.14-63.58-166.7-95.37-55.57-31.79-111.14-63.58-166.7-95.37-27.66-15.83-55.32-31.65-82.98-47.48-1.99-1.14-5.21-4.02-7.57-3.96-.92.02-2,1-2.76,1.44-1.96,1.12-3.92,2.24-5.88,3.36-7.11,4.06-14.22,8.13-21.32,12.19-13.73,7.85-27.45,15.7-41.18,23.54-55.64,31.81-111.27,63.62-166.91,95.43-55.64,31.81-111.27,63.62-166.91,95.43-6.86,3.92-13.73,7.85-20.59,11.77-1.68.96-.17,3.55,1.51,2.59,55.15-31.53,110.29-63.06,165.44-94.59,55.15-31.53,110.29-63.06,165.44-94.59,27.45-15.7,54.9-31.39,82.35-47.09,1.72-.98,3.43-1.96,5.15-2.94,1.36-.78,3.66-2.72,5.15-2.94,3.01-.46,7.7,3.59,10.24,5.04,6.85,3.92,13.71,7.84,20.56,11.76,13.71,7.84,27.42,15.69,41.12,23.53,55.08,31.51,110.16,63.02,165.23,94.53s110.16,63.02,165.23,94.53c6.85,3.92,13.71,7.84,20.56,11.76,1.68.96,3.19-1.63,1.51-2.59h0Z"/>
  <circle class="cls-2" cx="543.5" cy="684.5" r="7.5"/>
  <circle class="cls-2" cx="986.5" cy="1405.5" r="7.5"/>
  <circle class="cls-2" cx="1413.5" cy="683.5" r="7.5"/>
</svg>