<svg xmlns="http://www.w3.org/2000/svg" xmlns:xlink="http://www.w3.org/1999/xlink" width="300" height="300" viewBox="0 0 300 300"><defs><clipPath id="b"><rect width="300" height="300"/></clipPath></defs><g id="a" clip-path="url(#b)"><g transform="translate(-551.262 -403.25)"><g transform="translate(591.823 453.644)"><path d="M808.349,707.171,712.26,651.688l95.49-55.138,97,54.972Z" transform="translate(-703.464 -596.55)" fill="#064c77"/><path d="M1208.169,865.76V976.034l-96.089,55.482V921.242Z" transform="translate(-999.05 -795.576)" fill="#3871b6"/><path d="M774.774,929.765v110.2l-96.058-55.29-.2-110.577Z" transform="translate(-678.52 -801.742)" fill="#47b7e2"/></g><path d="M802.219,513.871,706.13,458.388l95.49-55.138,97,54.972Z" transform="translate(-107.11)" fill="rgba(5,89,133,0.58)"/><path d="M1362.879,895.36v110.274l-96.089,55.483V950.842Z" transform="translate(-521.604 -363.816)" fill="rgba(5,89,133,0.44)"/><path d="M561.25,918.18v110.274l96.089,55.483V973.663Z" transform="translate(0 -380.687)" fill="rgba(5,89,133,0.44)"/><g transform="translate(775.498 578.528)"><path d="M1397.9,1216.238s-1.846,2.56,2.547,1.212a38.446,38.446,0,0,0,13.15-6.194,21.881,21.881,0,0,0,4.291.222c-10.34,10.731-28.732,11.763-19.991,4.76h0Zm-4.32-6.307s-1.833,3.191,2.56,1.846a55.463,55.463,0,0,0,16.9-8.16,7.17,7.17,0,0,0,3.272.524c-13.3,10.963-32.079,14.068-22.733,5.793h0Zm34.616-.552s2.472.735-.91,3.564c-6.317,5.217-29.134,15.621-36.793,15.551-2.675-.011,1.048-3.238,2.338-4.041a11.822,11.822,0,0,1,2.023-1.236c-3.214-.678-15,10.538-4.979,8.079,27.567-6.689,46.269-21.716,38.3-21.909l.016-.008Zm-35.148-7.876s-10.574,7.777-2.612,5.556c3.42-.936,9.74-3.736,15.491-6.674,4.672-2.484,9.166-5.4,9.166-5.4a28.321,28.321,0,0,0-2.276,2.743c-10.652,8.191-34.23,16.5-29.016,10.483a24.284,24.284,0,0,1,9.247-6.7h0Zm26.206,3.321c9.437-11.366,1.277-15.035-2.292-12.639a7.373,7.373,0,0,0-1.22,1.024,2.01,2.01,0,0,1,.714-1.319c6.52-5.936,17.123,2.3,2.714,13.348a1.439,1.439,0,0,0,.081-.414h.005Zm-12.561,24.863c11.971-4.169,29.274-12.881,27.379-18.57,0,0,.052,2.526-8.006,7.834a105.573,105.573,0,0,1-29.274,12.881s2.057.654,9.9-2.151h0Z" transform="translate(-1383.061 -1160.101)" fill="#fff"/><path d="M1401.18,1075.58s9.563,3.97.839,19.738c-6.955,12.733,3.144,14.057,7.8,18.453-8.478-2.9-14.951-5.892-13.846-11.7,1.593-8.562,12.428-16.933,5.206-26.493Zm9.656,32.418c4.635,2.237,2.01,7.161,2.01,7.161s6.252-7.474.438-11c-5.4-3.441-8.992-4.721,1.616-18.742,0,0-19.793,14.852-4.067,22.574Z" transform="translate(-1392.514 -1075.58)" fill="#fff"/></g><g transform="translate(582.782 595.688)"><path d="M805.508,1234.909l-.985,3.509,3.778,1.061.985-3.509,1.89.529-.986,3.509,3.509.986-.529,1.89-3.509-.985-.985,3.509,3.509.986-.529,1.89-3.509-.985-.985,3.509-1.89-.529.985-3.509-3.778-1.061-.985,3.509-1.89-.529.985-3.509-3.509-.985.529-1.89,3.509.985.985-3.509-3.509-.986.529-1.89,3.509.985.985-3.509Zm2.263,6.457-3.509-.985-.985,3.509,3.509.986Z" transform="translate(-757.131 -1210.14)" fill="#fff"/><path d="M644.844,1160.749a26.574,26.574,0,0,1,51.319.636l-.023-.086-12.933,3.285a13.218,13.218,0,0,0-9.067-9.312l-.146-.042a13.23,13.23,0,1,0,5.772,22.1l-.078.078,9.31,9.563a26.564,26.564,0,0,1-25.473,6.658l-.284-.078a26.563,26.563,0,0,1-18.39-32.8Z" transform="translate(-643.844 -1141.403)" fill="#fff"/></g><path d="M939.084,536.5c32.8,6.267,32.89,28.907,32.89,28.907s10.522,4.99,10.7,13.288c0,0-5.115-3.6-10-1.481s-5.7,8.282-15.238,12.417c-21.714,9.409-39.475-4.4-39.475-4.4,24.939,4.76,34.368-10.363,34.368-10.363-11.038-1.285-40.26-17.243-40.26-17.243,22.131,6.593,30.593,7.211,30.593,7.211-5.483-1.476-24.394-13.277-24.394-13.277,13.533,5.3,37.859,10.571,37.859,10.571-1.29-16.985-17.047-25.63-17.047-25.63h0Z" transform="translate(-259.361 -98.511)" fill="#fefefe"/></g></g></svg>