<?xml version="1.0" encoding="UTF-8"?>
<svg id="Layer_1" data-name="Layer 1" xmlns="http://www.w3.org/2000/svg" viewBox="0 0 2150 2000">
  <defs>
    <style>
      .cls-1 {
        fill: #fff;
      }

      .cls-2 {
        fill: #3871b6;
      }

      .cls-3 {
        fill: #064c77;
      }

      .cls-4 {
        fill: #47b7e2;
      }

      .cls-5 {
        fill: rgba(5, 89, 133, .58);
      }

      .cls-6 {
        fill: rgba(5, 89, 133, .44);
      }

      .cls-7 {
        fill: #fefefe;
      }
    </style>
  </defs>
  <g>
    <path class="cls-3" d="m1080.84,1020.87l-368.58-212.82,366.28-211.5,372.09,210.86-369.79,213.46Z"/>
    <path class="cls-2" d="m1480.66,865.76v422.99l-368.58,212.82v-422.99l368.58-212.82Z"/>
    <polygon class="cls-4" points="1047.73 1087.62 1047.73 1510.33 679.27 1298.25 678.52 874.1 1047.73 1087.62"/>
  </g>
  <path class="cls-5" d="m1074.71,827.57l-368.58-212.82,366.28-211.5,372.09,210.86-369.79,213.46Z"/>
  <path class="cls-6" d="m1635.37,895.36v422.99l-368.58,212.82v-422.99l368.58-212.82Z"/>
  <path class="cls-6" d="m561.25,918.18v422.99s368.58,212.82,368.58,212.82v-422.99s-368.58-212.82-368.58-212.82Z"/>
  <g>
    <path class="cls-1" d="m1439.99,1290.91s-7.08,9.82,9.77,4.65c20.49-5.74,30.67-10.53,50.44-23.76,5.44.82,10.96,1.11,16.46.85-39.66,41.16-110.21,45.12-76.68,18.26h0Zm-16.57-24.19s-7.03,12.24,9.82,7.08c21.98-6.85,38.71-13.44,64.83-31.3,3.97,1.64,8.27,2.33,12.55,2.01-51.01,42.05-123.05,53.96-87.2,22.22h0Zm132.78-2.12s9.48,2.82-3.49,13.67c-24.23,20.01-111.75,59.92-141.13,59.65-10.26-.04,4.02-12.42,8.97-15.5,4.86-3.51,7.76-4.74,7.76-4.74-12.33-2.6-57.55,40.42-19.1,30.99,105.74-25.66,177.48-83.3,146.92-84.04l.06-.03Zm-134.82-30.21s-40.56,29.83-10.02,21.31c13.12-3.59,37.36-14.33,59.42-25.6,17.92-9.53,35.16-20.7,35.16-20.7,0,0-5.4,5.7-8.73,10.52-40.86,31.42-131.3,63.3-111.3,40.21,17.14-19.44,35.47-25.72,35.47-25.72h-.01Zm100.52,12.74c36.2-43.6,4.9-57.67-8.79-48.48-3.37,2.4-4.68,3.93-4.68,3.93,0,0,.19-3,2.74-5.06,25.01-22.77,65.68,8.82,10.41,51.2,0,0,.24-.58.31-1.59h.02Zm-48.18,95.37c45.92-15.99,112.29-49.41,105.02-71.23,0,0,.2,9.69-30.71,30.05-35.11,23.13-82.64,42.23-112.29,49.41,0,0,7.89,2.51,37.98-8.25h0Z"/>
    <path class="cls-1" d="m1416.3,1075.58s36.68,15.23,3.22,75.71c-26.68,48.84,12.06,53.92,29.91,70.78-32.52-11.14-57.35-22.6-53.11-44.87,6.11-32.84,47.67-64.95,19.97-101.62Zm37.04,124.35c17.78,8.58,7.71,27.47,7.71,27.47,0,0,23.98-28.67,1.68-42.18-20.7-13.2-34.49-18.11,6.2-71.89,0,0-75.92,56.97-15.6,86.59Z"/>
  </g>
  <g>
    <path class="cls-1" d="m829.41,1236.41l-3.78,13.46,14.49,4.07,3.78-13.46,7.25,2.03-3.78,13.46,13.46,3.78-2.03,7.25-13.46-3.78-3.78,13.46,13.46,3.78-2.03,7.25-13.46-3.78-3.78,13.46-7.25-2.03,3.78-13.46-14.49-4.07-3.78,13.46-7.25-2.03,3.78-13.46-13.46-3.78,2.03-7.25,13.46,3.78,3.78-13.46-13.46-3.78,2.03-7.25,13.46,3.78,3.78-13.46,7.25,2.03Zm8.68,24.77l-13.46-3.78-3.78,13.46,13.46,3.78,3.78-13.46Z"/>
    <path class="cls-1" d="m647.68,1215.61c15.24-54,72.1-85.71,126.06-70.32,36.08,10.29,62.07,38.82,70.79,72.76l-.09-.33-49.61,12.6c-4.41-16.61-17.14-30.56-34.78-35.72l-.56-.16c-26.99-7.58-55,8.16-62.58,35.14-2.48,8.82-2.45,17.76-.36,26.05,4.29,17.07,17.34,31.43,35.51,36.53,18.27,5.13,37.02-.44,49.57-12.95l-.3.3,35.71,36.68c-24.95,24.34-61.72,35.22-97.71,25.54l-1.09-.3c-36.41-10.22-62.63-38.98-71.29-73.2-4.24-16.75-4.28-34.8.75-52.62Z"/>
  </g>
  <path class="cls-7" d="m1015.69,536.5c125.81,24.04,126.16,110.88,126.16,110.88,0,0,40.36,19.14,41.03,50.97,0,0-19.62-13.8-38.34-5.68-18.76,8.13-21.87,31.77-58.45,47.63-83.29,36.09-151.42-16.87-151.42-16.87,95.66,18.26,131.83-39.75,131.83-39.75-42.34-4.93-154.43-66.14-154.43-66.14,84.89,25.29,117.35,27.66,117.35,27.66-21.03-5.66-93.57-50.93-93.57-50.93,51.91,20.32,145.22,40.55,145.22,40.55-4.95-65.15-65.39-98.31-65.39-98.31h0Z"/>
</svg>