<svg width="200" height="200"  xmlns="http://www.w3.org/2000/svg" viewBox="0 0 1962 2000">
  <defs>
    <style>
      .cls-1 {
        fill: #3871b6;
      }

      .cls-2 {
        fill: rgba(6, 76, 119, .78);
      }
    </style>
  </defs>
  <g>
    <path class="cls-1" d="m619.62,940.34l362-187.27,363.27,187.27-.27,204-362.36-189.85c-120.21,64.95-240.42,129.9-360.64,194.85-.67-69.67-1.33-139.33-2-209Z"/>
    <path class="cls-2" d="m618.34,1148.87l362,187.27,363.27-187.27-.27-204-362.36,189.85c-120.21-64.95-240.42-129.9-360.64-194.85-.67,69.67-1.33,139.33-2,209Z"/>
  </g>
  <path class="cls-1" d="m619,699l362-187.27,363.27,187.27-.27,204-362.36-189.85c-120.21,64.95-240.42,129.9-360.64,194.85-.67-69.67-1.33-139.33-2-209Z"/>
  <path class="cls-2" d="m617.73,907.53l362,187.27,363.27-187.27-.27-204-362.36,189.85c-120.21-64.95-240.42-129.9-360.64-194.85-.67,69.67-1.33,139.33-2,209Z"/>
</svg>