<?xml version="1.0" encoding="UTF-8"?>
<svg id="Layer_1" data-name="Layer 1" width="300" height="300" xmlns="http://www.w3.org/2000/svg" viewBox="0 0 2130.5 2086">
  <defs>
    <style>
      .cls-1 {
        fill: #fff;
      }

      .cls-2 {
        fill: #3871b6;
      }

      .cls-3 {
        fill: #064c77;
      }

      .cls-4 {
        fill: #47b7e2;
      }
    </style>
  </defs>
  <g>
    <path class="cls-3" d="m1081.81,994.28l-282.27-162.99,280.51-161.97,284.96,161.49-283.2,163.47Z"/>
    <path class="cls-2" d="m1393.44,886.35v323.94l-282.27,162.99v-323.94l282.27-162.99Z"/>
    <polygon class="cls-4" points="1061.89 1056.25 1061.89 1379.98 779.7 1217.56 779.13 892.74 1061.89 1056.25"/>
  </g>
  <g>
    <polygon class="cls-1" points="535.11 995.41 459.25 1036.58 459.25 1117.06 724.96 1264.27 743.14 1575.45 792.41 1568.75 813.96 1246.67 1074.69 1102.7 1076.31 1057.38 1046.27 1026.29 923.16 995.41 544.64 995.41 535.11 995.41"/>
    <path class="cls-3" d="m736.81,1195.07l-282.27-162.99,280.51-161.97,284.96,161.49-283.2,163.47Z"/>
    <polygon class="cls-2" points="716.89 1257.04 716.89 1580.76 434.7 1418.35 434.13 1093.52 716.89 1257.04"/>
  </g>
  <g>
    <polygon class="cls-1" points="1170.21 1012.76 1094.35 1053.93 1094.35 1134.41 1360.07 1281.62 1378.24 1592.8 1427.52 1586.1 1449.07 1264.03 1709.79 1120.05 1711.41 1074.73 1681.37 1043.64 1558.26 1012.76 1179.75 1012.76 1170.21 1012.76"/>
    <path class="cls-3" d="m1403.15,1208.95l-282.27-162.99,280.51-161.97,284.96,161.49-283.2,163.47Z"/>
    <path class="cls-2" d="m1714.78,1101.02v323.94l-282.27,162.99v-323.94l282.27-162.99Z"/>
    <polygon class="cls-4" points="1383.23 1270.92 1383.23 1594.65 1101.04 1432.23 1100.47 1107.4 1383.23 1270.92"/>
  </g>
  <g>
    <polygon class="cls-1" points="842.03 1208.95 766.16 1250.12 766.16 1330.6 1031.88 1477.81 1050.06 1788.99 1099.33 1782.29 1120.88 1460.22 1381.61 1316.24 1383.23 1270.92 1353.18 1239.83 1230.08 1208.95 851.56 1208.95 842.03 1208.95"/>
    <path class="cls-3" d="m1069.98,1403.3l-282.27-162.99,280.51-161.97,284.96,161.49-283.2,163.47Z"/>
    <path class="cls-2" d="m1381.61,1295.36v323.94l-282.27,162.99v-323.94l282.27-162.99Z"/>
    <polygon class="cls-2" points="1050.06 1465.27 1050.06 1788.99 767.87 1626.58 767.3 1301.75 1050.06 1465.27"/>
  </g>
  <g>
    <path class="cls-1" d="m859.34,535.42l-75.86,41.17v80.48l265.72,147.21,18.17,311.18,49.28-6.7,21.55-322.08,260.72-143.98,1.62-45.32c-2.82-26.85-5.63-53.71-8.45-80.56-48.23,6.2-96.46,12.39-144.7,18.59h-388.05Z"/>
    <path class="cls-3" d="m1081.25,625.07l-282.27-162.99,280.51-161.97,284.96,161.49-283.2,163.47Z"/>
    <polygon class="cls-4" points="1061.32 687.03 1061.32 1010.76 779.14 848.34 778.56 523.52 1061.32 687.03"/>
  </g>
  <g>
    <path class="cls-1" d="m512.25,614.19l-75.86,41.17v80.48l265.72,147.21c4.94,106.61,9.87,213.21,14.81,319.82,6.33-.73,13.35-1.92,20.87-3.79,12.58-3.14,23.23-7.4,31.78-11.54,7.18-107.36,14.37-214.72,21.55-322.08l260.72-143.98c14.17-16.28,28.35-32.55,42.52-48.83-23.65-9.19-47.3-18.39-70.95-27.58l-123.11-30.88h-388.05Z"/>
    <path class="cls-3" d="m738.25,813.85l-282.27-162.99,280.51-161.97,284.96,161.49-283.2,163.47Z"/>
    <polygon class="cls-2" points="718.32 875.82 718.32 1199.54 436.14 1037.13 435.56 712.3 718.32 875.82"/>
  </g>
  <g>
    <path class="cls-1" d="m1171.65,631.54l-75.86,41.17v80.48l265.72,147.21,18.17,311.18c21.24,2.15,42.49,4.31,63.73,6.46,2.37-111.75,4.73-223.49,7.1-335.24l260.72-143.98,1.62-45.32-30.04-31.09-123.11-30.88h-388.05Z"/>
    <path class="cls-3" d="m1404.59,827.73l-282.27-162.99,280.51-161.97,284.96,161.49-283.2,163.47Z"/>
    <path class="cls-2" d="m1716.21,719.8v323.94l-282.27,162.99v-323.94l282.27-162.99Z"/>
    <polygon class="cls-4" points="1384.66 889.7 1384.66 1213.43 1102.48 1051.01 1101.9 726.18 1384.66 889.7"/>
  </g>
  <g>
    <path class="cls-1" d="m843.46,827.73c-28.91,5.54-57.81,11.09-86.72,16.63,3.62,35.01,7.23,70.01,10.85,105.02l265.72,147.21,18.17,311.18,49.28-6.7,21.55-322.08,260.72-143.98c10.64-11.88,21.28-23.77,31.91-35.65-20.11-13.59-40.22-27.17-60.33-40.76l-123.11-30.88h-388.05Z"/>
    <path class="cls-3" d="m1071.42,1022.08l-282.27-162.99,280.51-161.97,284.96,161.49-283.2,163.47Z"/>
    <path class="cls-2" d="m1383.04,914.14v323.94l-282.27,162.99v-323.94l282.27-162.99Z"/>
    <polygon class="cls-2" points="1051.49 1084.05 1051.49 1407.77 769.31 1245.36 768.73 920.53 1051.49 1084.05"/>
  </g>
</svg>