<svg xmlns="http://www.w3.org/2000/svg" xmlns:xlink="http://www.w3.org/1999/xlink" width="300" height="300" viewBox="0 0 300 300"><defs><clipPath id="b"><rect width="300" height="300"/></clipPath></defs><g id="a" clip-path="url(#b)"><g transform="translate(11.623 -1.97)"><g transform="translate(7 2.65)"><path d="M129.722,141.636,9.02,71.9,129.011,2.65,250.917,71.732l-121.14,69.9Z" transform="translate(2.038 -2.65)" fill="#064c77"/><path d="M153.7,18.76V157.308L32.94,227.047V88.5L153.7,18.76Z" transform="translate(109.056 69.427)" fill="#3871b6"/><path d="M127.921,89.163V227.656L7.274,158.191,7,19.26Z" transform="translate(-7 71.664)" fill="#47b7e2"/></g><g transform="translate(34.306 166.979)"><path d="M31.014,38.423l-.931,4.489L34.9,43.9l.931-4.489,2.409.493-.931,4.489,4.489.931L41.3,47.729,36.816,46.8l-.931,4.489,4.489.931-.493,2.409L35.393,53.7l-.931,4.489-2.409-.493.931-4.489-4.817-.985-.931,4.489-2.409-.493.931-4.489-4.489-.931.493-2.409,4.489.931.931-4.489L22.693,43.9l.493-2.409,4.489.931.931-4.489Zm3.394,7.883-4.489-.931-.931,4.489,4.489.931Z" transform="translate(29.539 -9.135)" fill="#fff"/><path d="M12.71,59.22a33.383,33.383,0,0,1,64.375-3.668v-.109L61.1,60.7A16.694,16.694,0,0,0,48.948,49.8h-.164A16.6,16.6,0,1,0,42.05,82.321,16.8,16.8,0,0,0,57.98,76.956l-.109.109L70.351,88.233A33.344,33.344,0,0,1,38.985,98.8H38.6A33.529,33.529,0,0,1,13.64,76.409,33.094,33.094,0,0,1,12.71,59.22Z" transform="translate(-11.988 -32.67)" fill="#fff"/></g><path d="M53.54,9.539c35.8,6.843,35.91,31.53,35.91,31.53s11.5,5.419,11.66,14.506c0,0-5.584-3.941-10.893-1.642s-6.24,9.032-16.641,13.521c-23.7,10.291-43.081-4.817-43.081-4.817,27.206,5.2,37.5-11.331,37.5-11.331-12.043-1.423-43.9-18.831-43.9-18.831,24.14,7.171,33.392,7.883,33.392,7.883-5.967-1.587-26.6-14.506-26.6-14.506,14.78,5.8,41.329,11.55,41.329,11.55C70.783,18.845,53.6,9.43,53.6,9.43h0Z" transform="translate(76.461 30.334)" fill="#fefefe"/><g transform="translate(162.572 161.802)"><path d="M36.4,51.95s-.274,0-.274-.164l.219-1.861s.164-.438.383-.547L53.483,39.36s.328,0,.328.219v1.7s-.219.493-.383.547L36.4,51.95Z" transform="translate(-32.243 2.44)" fill="#fff"/><path d="M35.694,55.08s-.274,0-.274-.164l.219-1.752s.164-.383.274-.6L56.221,40.41s.383.055.438.219l.274,1.259a1.577,1.577,0,0,1-.219.6L35.639,55.08Z" transform="translate(-35.42 7.138)" fill="#fff"/><path d="M38.1,49.192s-.328,0-.328-.219V47.386s.055-.438.274-.547L47.4,41.2s.383,0,.493.164l.6,1.2s0,.438-.109.547L38.153,49.192Z" transform="translate(-24.906 10.672)" fill="#fff"/><g transform="translate(23.805)"><path d="M70.759,39.478c-2.463,2.463-4.106,4.215-6.514,6.624-.6.6-.6.657-1.587.328a7.135,7.135,0,0,0-3.23-.438c-3.777.328-6.3,2.409-7.937,5.693a11.357,11.357,0,0,0,.547,11.55,8.385,8.385,0,0,0,10.51,3.5,9.961,9.961,0,0,0,6.021-7.718c.109-.766.164-1.533.219-2.463l-8.868,5.31c-.985.6-1.533.109-1.7-.876-.274-1.806-.6-4.817-.657-6.4a1.459,1.459,0,0,1,.712-1.423L75.028,43.146C75.685,44.46,76.4,45.664,77,47.032a23.362,23.362,0,0,1,1.642,11.277,22.328,22.328,0,0,1-8.43,15.656,19.1,19.1,0,0,1-14.178,4.379A16.788,16.788,0,0,1,44.1,71.611a21,21,0,0,1-4.16-15.82,23.714,23.714,0,0,1,8.1-15.656c3.832-3.394,8.321-5.365,13.521-5.036a16.9,16.9,0,0,1,9.2,3.284c.547.274.493.6,0,1.04Z" transform="translate(-39.769 -16.783)" fill="#fff"/><path d="M73.425,70.677A19.241,19.241,0,0,1,60.232,73.25a16.476,16.476,0,0,1-9.963-5.693,19.74,19.74,0,0,1-4.434-15.6,21.712,21.712,0,0,1,8.047-14.889c4.051-3.5,8.594-5.638,14.068-5.31a15.949,15.949,0,0,1,12.207,6.186,19.967,19.967,0,0,1,3.887,18.174,23.9,23.9,0,0,1-7.28,12.1c-1.095.931-2.244,1.7-3.339,2.518ZM73.26,46.318a9.9,9.9,0,0,0-1.04-1.368,8.564,8.564,0,0,0-12.645-.493A11.39,11.39,0,0,0,56.4,56.883a8.564,8.564,0,0,0,9.142,5.967,9.5,9.5,0,0,0,7.116-4.6,11.351,11.351,0,0,0,.547-11.879Z" transform="translate(-13.368 -31.724)" fill="#fff"/></g></g></g></g></svg>